<svg width="48" height="49" viewBox="0 0 48 49" fill="none" xmlns="http://www.w3.org/2000/svg">
<path d="M17.726 21.8923L17.7092 21.9191L17.696 21.9478C17.3895 22.6119 17.5027 23.3574 17.7463 24.0198C17.9937 24.6923 18.4072 25.3672 18.8319 25.9561C19.2595 26.5489 19.7138 27.0754 20.0596 27.4523C20.233 27.6413 20.3801 27.7939 20.4845 27.8998C20.5367 27.9528 20.5783 27.9942 20.6072 28.0226L20.6407 28.0555L20.6464 28.061L20.6519 28.0667L20.6849 28.1004C20.7135 28.1293 20.7549 28.1709 20.808 28.223C20.9141 28.3273 21.0669 28.4741 21.2562 28.6465C21.6337 28.9904 22.1613 29.4408 22.7556 29.8598C23.3457 30.2757 24.0242 30.6769 24.702 30.9028C25.3711 31.1258 26.1199 31.2035 26.7803 30.8512C27.158 30.6607 27.486 30.3567 27.7723 30.056C27.9189 29.902 28.0635 29.7389 28.2031 29.5813L28.2176 29.5649C28.3541 29.4108 28.4861 29.2616 28.6206 29.1184C29.1997 28.502 29.6876 28.1537 30.2547 28.2053C30.567 28.2337 31.1331 28.4299 31.8242 28.7812C32.4977 29.1236 33.2336 29.5842 33.8716 30.0874C34.5179 30.5972 35.0258 31.1211 35.2857 31.5813C35.4142 31.8089 35.4645 31.9904 35.4663 32.1271C35.4679 32.2487 35.4325 32.358 35.3306 32.4703C33.6909 34.259 32.5811 35.175 31.5826 35.6571C30.6014 36.1308 29.6841 36.2073 28.35 36.2073H28.3419L28.3338 36.2076C26.1833 36.277 23.8247 35.0516 21.8718 33.6567C20.0356 32.3452 18.6465 30.9489 18.2563 30.5567C18.236 30.5363 18.2183 30.5186 18.2035 30.5038L18.2035 30.5038L18.1991 30.4994L18.199 30.4994L18.199 30.4993L18.1985 30.4988L18.1958 30.4962L18.1841 30.4847L18.1365 30.4373C18.0942 30.3949 18.0316 30.3316 17.9515 30.249C17.7914 30.0837 17.5617 29.8414 17.2861 29.5358C16.7343 28.9239 16.001 28.0614 15.2736 27.0577C14.5451 26.0525 13.8295 24.9155 13.3067 23.7544C12.7819 22.5891 12.4656 21.4308 12.4997 20.3735L12.5 20.3654V20.3573C12.5 19.0232 12.5765 18.106 13.0502 17.1247C13.5323 16.1262 14.4483 15.0164 16.237 13.3767C16.3471 13.2769 16.4532 13.2436 16.5725 13.247C16.7082 13.2508 16.89 13.3045 17.119 13.4387C17.5814 13.7098 18.1069 14.2324 18.6178 14.8893C19.1221 15.5377 19.5838 16.2798 19.9271 16.9482C20.2798 17.6352 20.474 18.1804 20.5022 18.4549C20.5524 19.0187 20.2064 19.5065 19.5756 20.0816C19.4237 20.2201 19.2637 20.3566 19.0979 20.4969C19.0791 20.5128 19.0602 20.5287 19.0413 20.5447C18.8952 20.6683 18.7447 20.7955 18.6008 20.9233C18.2797 21.2085 17.9532 21.5287 17.726 21.8923Z" stroke="#1D2E2E"/>
<circle cx="24" cy="24.7073" r="23.5" stroke="#1D2E2E"/>
</svg>
