<svg width="48" height="49" viewBox="0 0 48 49" fill="none" xmlns="http://www.w3.org/2000/svg">
<path d="M15.7895 15.7073H32.2105C33.2156 15.7073 34.1794 16.1066 34.8901 16.8172C35.6008 17.5279 36 18.4918 36 19.4968V30.8652C36 31.8703 35.6008 32.8341 34.8901 33.5448C34.1794 34.2555 33.2156 34.6547 32.2105 34.6547H15.7895C14.7844 34.6547 13.8206 34.2555 13.1099 33.5448C12.3992 32.8341 12 31.8703 12 30.8652V19.4968C12 18.4918 12.3992 17.5279 13.1099 16.8172C13.8206 16.1066 14.7844 15.7073 15.7895 15.7073ZM15.7895 16.9705C15.1579 16.9705 14.6021 17.1852 14.1726 17.5642L24 23.9179L33.8274 17.5642C33.3979 17.1852 32.8421 16.9705 32.2105 16.9705H15.7895ZM24 25.4463L13.4274 18.5873C13.3263 18.8652 13.2632 19.181 13.2632 19.4968V30.8652C13.2632 31.5353 13.5293 32.1778 14.0031 32.6516C14.4769 33.1254 15.1195 33.3915 15.7895 33.3915H32.2105C32.8805 33.3915 33.5231 33.1254 33.9969 32.6516C34.4707 32.1778 34.7368 31.5353 34.7368 30.8652V19.4968C34.7368 19.181 34.6737 18.8652 34.5726 18.5873L24 25.4463Z" fill="#1D2E2E"/>
<circle cx="24" cy="24.7073" r="23.5" stroke="#1D2E2E"/>
</svg>
