<svg width="48" height="49" viewBox="0 0 48 49" fill="none" xmlns="http://www.w3.org/2000/svg">
<path d="M30.5033 12.885C29.3504 12.763 28.1917 12.7037 27.0324 12.7075C23.1886 12.7075 20.8002 15.155 20.8002 19.0959V21.7711H17.5714C17.256 21.7709 17.0001 22.0265 17 22.3419V26.7432C16.9998 27.0587 17.2554 27.3144 17.5708 27.3147H20.8002V36.1361C20.8 36.4515 21.0556 36.7073 21.371 36.7075H25.9174C26.2328 36.7077 26.4886 36.4521 26.4888 36.1367V27.3147H29.7077C29.9948 27.3146 30.2374 27.1016 30.2746 26.8169L30.8427 22.4162C30.8835 22.1034 30.663 21.8167 30.3502 21.7759C30.3255 21.7727 30.3006 21.7711 30.2757 21.7711H26.4888V19.5323C26.4888 18.424 26.7121 17.9609 28.0982 17.9609L30.4286 17.9597C30.744 17.9599 30.9998 17.7044 31 17.3889V13.4519C31.0001 13.1651 30.7877 12.9226 30.5033 12.885ZM29.8571 16.8169L28.0982 16.818C25.6317 16.818 25.346 18.3671 25.346 19.5323V22.3426C25.3458 22.658 25.6014 22.9138 25.9168 22.914H29.6261L29.2054 26.1718H25.9174C25.602 26.1717 25.3462 26.4272 25.346 26.7426V35.5647H21.9431V26.7432C21.9433 26.4278 21.6877 26.172 21.3723 26.1718H18.1429V22.914H21.3717C21.6871 22.9142 21.9429 22.6586 21.9431 22.3432V19.0959C21.9431 15.8113 23.8459 13.8504 27.0324 13.8504C28.1853 13.8504 29.2266 13.9129 29.8571 13.9676V16.8169Z" fill="#1D2E2E"/>
<circle cx="24" cy="24.7073" r="23.5" stroke="#1D2E2E"/>
</svg>
