<svg width="32" height="33" viewBox="0 0 32 33" fill="none" xmlns="http://www.w3.org/2000/svg">
<path d="M16 13.1873C15.3038 13.1873 14.6233 13.3937 14.0444 13.7805C13.4655 14.1673 13.0144 14.717 12.7479 15.3602C12.4815 16.0034 12.4118 16.7112 12.5476 17.394C12.6835 18.0768 13.0187 18.704 13.511 19.1963C14.0033 19.6886 14.6305 20.0238 15.3133 20.1596C15.9961 20.2955 16.7038 20.2258 17.347 19.9593C17.9902 19.6929 18.54 19.2417 18.9268 18.6629C19.3136 18.084 19.52 17.4035 19.52 16.7073C19.5189 15.774 19.1477 14.8793 18.4878 14.2194C17.8279 13.5595 16.9332 13.1883 16 13.1873ZM16 19.5873C15.4304 19.5873 14.8736 19.4184 14.4 19.1019C13.9263 18.7854 13.5572 18.3357 13.3392 17.8094C13.1212 17.2832 13.0642 16.7041 13.1753 16.1454C13.2865 15.5867 13.5608 15.0736 13.9635 14.6708C14.3663 14.268 14.8795 13.9937 15.4381 13.8826C15.9968 13.7715 16.5759 13.8285 17.1021 14.0465C17.6284 14.2645 18.0782 14.6336 18.3946 15.1072C18.7111 15.5808 18.88 16.1377 18.88 16.7073C18.88 17.4711 18.5766 18.2036 18.0365 18.7437C17.4964 19.2838 16.7638 19.5873 16 19.5873ZM19.84 8.70728H12.16C11.0571 8.70855 9.99971 9.14724 9.21984 9.92711C8.43996 10.707 8.00127 11.7644 8 12.8673V20.5473C8.00127 21.6502 8.43996 22.7076 9.21984 23.4874C9.99971 24.2673 11.0571 24.706 12.16 24.7073H19.84C20.9429 24.706 22.0003 24.2673 22.7802 23.4874C23.56 22.7076 23.9987 21.6502 24 20.5473V12.8673C23.9987 11.7644 23.56 10.707 22.7802 9.92711C22.0003 9.14724 20.9429 8.70855 19.84 8.70728ZM23.36 20.5473C23.3589 21.4805 22.9877 22.3752 22.3278 23.0351C21.6679 23.695 20.7732 24.0662 19.84 24.0673H12.16C11.2268 24.0662 10.3321 23.695 9.67215 23.0351C9.01225 22.3752 8.64106 21.4805 8.64 20.5473V12.8673C8.64106 11.934 9.01225 11.0393 9.67215 10.3794C10.3321 9.71953 11.2268 9.34833 12.16 9.34728H19.84C20.7732 9.34833 21.6679 9.71953 22.3278 10.3794C22.9877 11.0393 23.3589 11.934 23.36 12.8673V20.5473ZM20.8 12.5473C20.8 12.6739 20.7625 12.7976 20.6921 12.9028C20.6218 13.0081 20.5219 13.0901 20.4049 13.1386C20.288 13.187 20.1593 13.1997 20.0351 13.175C19.911 13.1503 19.797 13.0893 19.7075 12.9998C19.6179 12.9103 19.557 12.7963 19.5323 12.6721C19.5076 12.548 19.5203 12.4193 19.5687 12.3024C19.6172 12.1854 19.6992 12.0855 19.8044 12.0151C19.9097 11.9448 20.0334 11.9073 20.16 11.9073C20.3297 11.9073 20.4925 11.9747 20.6125 12.0947C20.7326 12.2148 20.8 12.3775 20.8 12.5473Z" fill="#1D2E2E"/>
<circle cx="16" cy="16.7073" r="15.5" stroke="#1D2E2E"/>
</svg>
