<svg width="48" height="49" viewBox="0 0 48 49" fill="none" xmlns="http://www.w3.org/2000/svg">
<path d="M17.7755 20.9457C17.7752 20.9457 17.7757 20.9457 17.7755 20.9457H13.0715C12.7469 20.9455 12.4838 21.2084 12.4835 21.5329C12.4835 21.5327 12.4835 21.5332 12.4835 21.5329V35.6435C12.4833 35.968 12.7463 36.2312 13.0707 36.2314C13.0705 36.2314 13.071 36.2314 13.0707 36.2314H17.7747C18.0993 36.2316 18.3624 35.9687 18.3627 35.6441C18.3627 35.6439 18.3627 35.6444 18.3627 35.6441V21.5336C18.3629 21.2091 18.0999 20.9459 17.7755 20.9457ZM17.1868 35.0556H13.6594V22.1215H17.1868V35.0556ZM30.1209 20.9457C28.8453 20.9458 27.6054 21.3668 26.5934 22.1434V21.5336C26.5936 21.2091 26.3307 20.9459 26.0062 20.9457C26.0059 20.9457 26.0064 20.9457 26.0062 20.9457H21.3022C20.9777 20.9455 20.7145 21.2084 20.7143 21.5329C20.7143 21.5327 20.7143 21.5332 20.7143 21.5329V35.6435C20.7141 35.968 20.977 36.2312 21.3016 36.2314C21.3014 36.2314 21.3018 36.2314 21.3016 36.2314H26.0055C26.33 36.2316 26.5932 35.9687 26.5934 35.6441C26.5934 35.6439 26.5934 35.6444 26.5934 35.6441V29.1765C26.5934 28.2024 27.3831 27.4127 28.3572 27.4127C29.3312 27.4127 30.1209 28.2024 30.1209 29.1765V35.6435C30.1207 35.968 30.3836 36.2312 30.7082 36.2314C30.7079 36.2314 30.7084 36.2314 30.7082 36.2314H35.4121C35.7366 36.2316 35.9998 35.9687 36 35.6441C36 35.6439 36 35.6444 36 35.6441V26.8248C35.9962 23.5795 33.3662 20.9495 30.1209 20.9457ZM34.8242 35.0556H31.2967V29.1765C31.2967 27.553 29.9807 26.2369 28.3572 26.2369C26.7336 26.2369 25.4176 27.553 25.4176 29.1765V35.0556H21.8901V22.1215H25.4176V23.5362C25.4176 23.786 25.5756 24.0085 25.8115 24.0908C26.0468 24.1756 26.3101 24.1002 26.4649 23.9036C28.067 21.8732 31.0117 21.5261 33.0421 23.1283C34.1731 24.0208 34.8304 25.3841 34.8242 26.8248V35.0556ZM15.8558 12.7171C15.7175 12.7074 15.5787 12.7067 15.4403 12.715C13.6657 12.5937 12.1288 13.9341 12.0076 15.7088C12.0027 15.7802 12.0003 15.8517 12.0001 15.9232C11.9848 17.6828 13.3989 19.1215 15.1584 19.1368C15.2303 19.1375 15.302 19.1356 15.3737 19.1314H15.407C17.1783 19.2553 18.7146 17.9199 18.8385 16.1486C18.9625 14.3774 17.627 12.841 15.8558 12.7171ZM15.8152 17.9589C15.6794 17.9714 15.5426 17.9703 15.407 17.9556H15.3737C14.2495 18.042 13.2682 17.2007 13.1818 16.0765C13.0954 14.9523 13.9366 13.9709 15.0608 13.8845C15.1873 13.8748 15.3143 13.8769 15.4403 13.8908C16.5637 13.7873 17.5583 14.614 17.6619 15.7374C17.7653 16.8608 16.9386 17.8554 15.8152 17.9589Z" fill="#1D2E2E"/>
<circle cx="24" cy="24.7073" r="23.5" stroke="#1D2E2E"/>
</svg>
