<svg width="48" height="49" viewBox="0 0 48 49" fill="none" xmlns="http://www.w3.org/2000/svg">
<path d="M24.5 36.2341C24.2711 35.9681 23.9474 35.5851 23.5601 35.1079C22.7697 34.134 21.7166 32.7705 20.6645 31.2112C19.6114 29.6504 18.5655 27.9024 17.7844 26.1589C17.0004 24.4088 16.5 22.6999 16.5 21.2073C16.5 16.7903 20.0829 13.2073 24.5 13.2073C28.9171 13.2073 32.5 16.7903 32.5 21.2073C32.5 22.6999 31.9996 24.4088 31.2156 26.1589C30.4345 27.9024 29.3886 29.6504 28.3355 31.2112C27.2834 32.7705 26.2303 34.134 25.4399 35.1079C25.0526 35.5851 24.7289 35.9681 24.5 36.2341ZM20.9643 21.2073C20.9643 23.1592 22.5481 24.743 24.5 24.743C26.4519 24.743 28.0357 23.1592 28.0357 21.2073C28.0357 19.2555 26.4519 17.6716 24.5 17.6716C22.5481 17.6716 20.9643 19.2555 20.9643 21.2073Z" stroke="#1D2E2E"/>
<circle cx="24" cy="24.7073" r="23.5" stroke="#1D2E2E"/>
</svg>
