<svg width="48" height="49" viewBox="0 0 48 49" fill="none" xmlns="http://www.w3.org/2000/svg">
<path d="M14.43 16.7073C15.6482 18.2008 17.1695 19.4188 18.8933 20.2807C20.6171 21.1426 22.5043 21.6289 24.43 21.7073C24.17 20.6473 24.15 17.7673 26.17 16.5673C26.9912 16.0275 27.9476 15.7295 28.93 15.7073C29.5711 15.7088 30.205 15.8428 30.7918 16.1009C31.3786 16.3591 31.9057 16.7358 32.34 17.2073C33.3925 16.9833 34.4043 16.5988 35.34 16.0673C35.0115 17.1405 34.2996 18.0553 33.34 18.6373C34.2558 18.5581 35.1534 18.3354 36 17.9773C35.3628 18.9268 34.556 19.7505 33.62 20.4073C34.33 26.7773 28.62 34.6973 20.5 34.6973C17.8663 34.7117 15.2768 34.0212 13 32.6973C14.2413 32.8519 15.5011 32.7544 16.7038 32.4108C17.9066 32.0671 19.0277 31.4843 20 30.6973C18.9243 30.634 17.8872 30.2733 17.0044 29.6553C16.1216 29.0374 15.4277 28.1864 15 27.1973C16 27.5173 16.95 27.6773 17.5 27.1973C16.3765 26.9115 15.3745 26.2722 14.6417 25.3738C13.909 24.4754 13.4842 23.3654 13.43 22.2073C13.7604 22.5304 14.1513 22.785 14.5803 22.9566C15.0093 23.1282 15.468 23.2134 15.93 23.2073C14.9238 22.4985 14.2143 21.4434 13.9376 20.2441C13.6608 19.0447 13.8361 17.7854 14.43 16.7073Z" stroke="#1D2E2E" stroke-linecap="round" stroke-linejoin="round"/>
<circle cx="24" cy="24.7073" r="23.5" stroke="#1D2E2E"/>
</svg>
