<svg width="48" height="49" viewBox="0 0 48 49" fill="none" xmlns="http://www.w3.org/2000/svg">
<path d="M34.4834 30.5377C35.4779 28.7555 36 26.7484 36 24.7073C36 22.6663 35.4779 20.6592 34.4834 18.877C34.4782 18.819 34.4605 18.7629 34.4315 18.7125C34.4025 18.662 34.3629 18.6185 34.3154 18.5849C32.9742 16.3234 30.9274 14.5652 28.4898 13.5805C26.0523 12.5958 23.3588 12.4392 20.8236 13.1348C18.2884 13.8304 16.0518 15.3396 14.4576 17.4304C12.8635 19.5212 12 22.0779 12 24.7073C12 27.3368 12.8635 29.8935 14.4576 31.9843C16.0518 34.0751 18.2884 35.5843 20.8236 36.2799C23.3588 36.9754 26.0523 36.8188 28.4898 35.8342C30.9274 34.8495 32.9742 33.0913 34.3154 30.8298C34.3629 30.7962 34.4025 30.7527 34.4315 30.7022C34.4605 30.6518 34.4782 30.5956 34.4834 30.5377ZM17.1272 30.9142H19.0215C19.4181 32.4758 20.1432 33.9347 21.1483 35.1937C19.3805 34.2397 17.9695 32.7382 17.1272 30.9142ZM12.8433 25.1211H14.9093C14.9471 26.8187 15.2721 28.4977 15.8708 30.0866H14.216C13.3752 28.5622 12.9049 26.8611 12.8433 25.1211ZM14.2168 19.328H15.8716C15.273 20.917 14.9479 22.5959 14.9102 24.2935H12.8433C12.9052 22.5535 13.3757 20.8524 14.2168 19.328ZM30.8784 18.5004H28.9841C28.5875 16.9389 27.8624 15.48 26.8573 14.221C28.6251 15.175 30.036 16.6765 30.8784 18.5004ZM35.1623 24.2935H33.0963C33.0585 22.5959 32.7335 20.917 32.1348 19.328H33.7896C34.6304 20.8525 35.1007 22.5536 35.1623 24.2935ZM32.2689 24.2935H29.7896C29.7717 22.622 29.5738 20.9572 29.1992 19.328H31.2516C31.8862 20.9086 32.2308 22.5907 32.2689 24.2935ZM23.5891 19.328V24.2935H19.0434C19.0655 22.6198 19.2773 20.954 19.6747 19.328H23.5891ZM19.9031 18.5004C20.7305 15.7752 22.0758 13.8755 23.5891 13.5788V18.5004H19.9031ZM23.5891 25.1211V30.0866H19.6747C19.2773 28.4607 19.0655 26.7948 19.0434 25.1211H23.5891ZM23.5891 30.9142V35.8359C22.0758 35.5392 20.7309 33.6395 19.9031 30.9142H23.5891ZM24.4165 30.0866V25.1211H28.9622C28.94 26.7948 28.7283 28.4607 28.3309 30.0866H24.4165ZM28.1025 30.9142C27.2751 33.6395 25.9294 35.5392 24.4165 35.8359V30.9142H28.1025ZM24.4165 24.2935V19.328H28.3309C28.7283 20.954 28.94 22.6198 28.9622 24.2935H24.4165ZM24.4165 18.5004V13.5788C25.9294 13.8755 27.2743 15.7752 28.1025 18.5004H24.4165ZM21.1483 14.221C20.1432 15.48 19.4181 16.9389 19.0215 18.5004H17.1272C17.9695 16.6765 19.3805 15.175 21.1483 14.221ZM18.8059 19.328C18.4315 20.9572 18.2338 22.622 18.216 24.2935H15.7367C15.7747 22.5907 16.1191 20.9086 16.7536 19.328H18.8059ZM15.7367 25.1211H18.216C18.2338 26.7927 18.4315 28.4575 18.8059 30.0866H16.7536C16.1191 28.506 15.7747 26.824 15.7367 25.1211ZM26.8573 35.1937C27.8624 33.9347 28.5875 32.4758 28.9841 30.9142H30.8784C30.036 32.7382 28.6251 34.2397 26.8573 35.1937ZM29.1992 30.0866C29.5738 28.4575 29.7717 26.7927 29.7896 25.1211H32.2689C32.2308 26.824 31.8862 28.5061 31.2516 30.0866H29.1992ZM33.0963 25.1211H35.1623C35.1004 26.8612 34.6299 28.5622 33.7888 30.0866H32.134C32.7329 28.4977 33.0583 26.8188 33.0963 25.1211ZM33.2849 18.5004H31.7894C31.1567 17.087 30.2416 15.8179 29.1004 14.7713C30.7875 15.6413 32.227 16.9241 33.2849 18.5004ZM18.9048 14.7713C17.7638 15.8181 16.8489 17.0871 16.2162 18.5004H14.7207C15.7784 16.9242 17.2178 15.6413 18.9048 14.7713ZM14.7207 30.9142H16.2162C16.849 32.3276 17.7641 33.5966 18.9052 34.6433C17.2181 33.7734 15.7785 32.4906 14.7207 30.9142ZM29.1004 34.6433C30.2416 33.5967 31.1567 32.3277 31.7894 30.9142H33.2849C32.227 32.4905 30.7875 33.7734 29.1004 34.6433Z" fill="#1D2E2E"/>
<circle cx="24" cy="24.7073" r="23.5" stroke="#1D2E2E"/>
</svg>
