<svg width="32" height="33" viewBox="0 0 32 33" fill="none" xmlns="http://www.w3.org/2000/svg">
<path d="M23.6448 13.1226C23.5539 12.7838 23.3754 12.4749 23.1274 12.2268C22.8793 11.9788 22.5704 11.8003 22.2316 11.7094C21.306 11.3518 12.3389 11.1766 9.73729 11.7194C9.39844 11.8104 9.08948 11.9889 8.84143 12.237C8.59338 12.4851 8.41497 12.7941 8.3241 13.133C7.9061 14.9662 7.8745 18.9294 8.3345 20.8037C8.42543 21.1425 8.60387 21.4515 8.85192 21.6995C9.09996 21.9476 9.40889 22.126 9.74769 22.2169C11.5809 22.6389 20.296 22.6981 22.242 22.2169C22.5808 22.126 22.8897 21.9476 23.1378 21.6995C23.3858 21.4515 23.5643 21.1425 23.6552 20.8037C24.1008 18.8066 24.1324 15.089 23.6448 13.1226Z" stroke="#1D2E2E" stroke-linecap="round" stroke-linejoin="round"/>
<path d="M18.6265 16.963L14.4478 14.5666V19.3594L18.6265 16.963Z" stroke="#1D2E2E" stroke-linecap="round" stroke-linejoin="round"/>
<circle cx="16" cy="16.7073" r="15.5" stroke="#1D2E2E"/>
</svg>
