<svg width="180" height="156" viewBox="0 0 180 156" fill="none" xmlns="http://www.w3.org/2000/svg">
<path d="M102.414 155.172C145.264 155.172 180 120.436 180 77.5862C180 34.7365 145.264 0 102.414 0C59.5642 0 24.8276 34.7365 24.8276 77.5862C24.8276 120.436 59.5642 155.172 102.414 155.172Z" fill="#EBFFFF"/>
<path d="M112.985 70.1321H11.1529L12.8501 71.8293V65.1618L12.0095 66.6272L21.9802 61.6306L42.5739 51.3107L59.8129 42.6718L62.8113 41.1692H61.0981L71.0635 46.1408L91.6789 56.4253L109.023 65.0778L112.128 66.6271L111.288 65.1616V71.8292C111.288 72.7544 112.06 73.5264 112.985 73.5264C113.91 73.5264 114.682 72.7544 114.682 71.8292V65.1616C114.682 64.5947 114.366 63.958 113.841 63.6962L103.876 58.7247L83.2606 48.4401L65.9168 39.7877L62.8222 38.2438C61.9804 37.8239 61.3408 38.1167 60.6247 38.4756L58.8195 39.3802L42.3387 47.6392L21.525 58.0694L10.3557 63.6665L10.2963 63.6964C9.77175 63.9592 9.45571 64.5939 9.45571 65.1618V71.8293C9.45571 72.7546 10.2277 73.5265 11.1529 73.5265H112.985C113.91 73.5265 114.682 72.7546 114.682 71.8293C114.682 70.9041 113.91 70.1321 112.985 70.1321ZM114.985 144.809H9.1524L10.8496 146.506V136.163L9.1524 137.861H114.985L113.288 136.163V146.506C113.288 147.431 114.06 148.203 114.985 148.203C115.91 148.203 116.682 147.431 116.682 146.506V136.163C116.682 135.238 115.91 134.466 114.985 134.466H9.15228C8.22706 134.466 7.45508 135.238 7.45508 136.163V146.506C7.45508 147.431 8.22706 148.203 9.15228 148.203H114.985C115.91 148.203 116.682 147.431 116.682 146.506C116.682 145.581 115.91 144.809 114.985 144.809ZM29.3372 126.988H16.2445L17.9417 128.685L18.2499 116.238L18.8273 92.9117C18.9362 88.5109 19.0451 84.11 19.1541 79.7092L17.4569 81.4064H28.125L26.4278 79.7092L26.736 92.1564L27.3134 115.483L27.6397 128.666L27.6402 128.685C27.6631 129.61 28.395 130.383 29.3374 130.383C30.2453 130.383 31.0575 129.611 31.0346 128.685L30.7265 116.238L30.149 92.9116C30.0402 88.5107 29.9312 84.1099 29.8222 79.7091C29.7993 78.7845 29.0674 78.0119 28.125 78.0119H17.4569C16.5145 78.0119 15.7826 78.7845 15.7597 79.7091L15.4516 92.1563L14.8741 115.483L14.5478 128.666C14.5477 128.672 14.5475 128.679 14.5473 128.685C14.5244 129.61 15.3366 130.382 16.2445 130.382H29.3372C30.2624 130.382 31.0344 129.61 31.0344 128.685C31.0344 127.76 30.2624 126.988 29.3372 126.988ZM107.893 126.988H94.8006L96.4977 128.685L96.8058 116.238L97.3833 92.9117C97.4919 88.5173 97.6008 84.123 97.7095 79.7286L97.71 79.7092L96.0128 81.4064H106.681L104.984 79.7092L105.292 92.1564L105.869 115.483L106.196 128.666L106.196 128.685C106.219 129.61 106.951 130.383 107.893 130.383C108.801 130.383 109.613 129.611 109.59 128.685L109.282 116.238L108.705 92.9116C108.596 88.5172 108.487 84.1229 108.379 79.7285L108.378 79.7091C108.355 78.7845 107.623 78.0119 106.681 78.0119H96.0128C95.0704 78.0119 94.3384 78.7845 94.3156 79.7091L94.0076 92.1563L93.4301 115.483L93.1038 128.666L93.1033 128.685C93.0806 129.61 93.8928 130.382 94.8006 130.382L107.893 130.383C108.818 130.383 109.59 129.611 109.59 128.685C109.59 127.76 108.818 126.988 107.893 126.988Z" fill="#00B8B8"/>
<path d="M66.0995 57.8705C66.097 58.0383 66.0898 58.206 66.0776 58.3734C66.0392 58.9038 66.1415 58.0574 66.0437 58.5737C65.9836 58.8909 65.8831 59.1991 65.7701 59.5009C65.8922 59.1746 65.6918 59.6457 65.6771 59.6742C65.6055 59.8153 65.5224 59.95 65.4394 60.0844C65.4248 60.1079 65.1244 60.5267 65.3381 60.2528C65.2093 60.418 65.0648 60.5705 64.9188 60.7205C64.8092 60.8331 64.6907 60.9365 64.5723 61.0398C64.1911 61.3723 64.8304 60.8654 64.4146 61.1546C64.1545 61.3355 63.8732 61.4834 63.5875 61.6187C63.9034 61.4692 63.4272 61.6697 63.3976 61.6798C63.2447 61.7321 63.0877 61.7713 62.931 61.8105C62.901 61.818 62.3761 61.9097 62.7368 61.8626C62.5153 61.8916 62.2918 61.898 62.0689 61.9011C61.901 61.9036 61.7332 61.8914 61.5659 61.8793C61.0355 61.8409 61.8819 61.9433 61.3657 61.8454C61.0484 61.7851 60.7403 61.6846 60.4385 61.5718C60.7648 61.6938 60.2937 61.4933 60.2652 61.4788C60.1241 61.4071 59.9894 61.324 59.855 61.2411C59.8315 61.2265 59.4127 60.9261 59.6866 61.1398C59.5214 61.0108 59.3689 60.8666 59.2189 60.7205C59.1063 60.6109 59.0029 60.4923 58.8997 60.374C58.5672 59.9928 59.0742 60.632 58.7849 60.2163C58.6039 59.9562 58.4561 59.6749 58.3208 59.3892C58.4703 59.7051 58.2698 59.2288 58.2597 59.1992C58.2074 59.0462 58.1682 58.8892 58.1291 58.7326C58.1215 58.7027 58.0298 58.1776 58.0769 58.5384C58.048 58.317 58.0415 58.0934 58.0384 57.8704C58.036 57.7025 58.0481 57.5347 58.0602 57.3674C58.0986 56.8371 57.9962 57.6835 58.0941 57.1673C58.1544 56.8499 58.2548 56.5419 58.3678 56.24C58.2457 56.5664 58.4462 56.0953 58.4607 56.0668C58.5323 55.9257 58.6155 55.791 58.6985 55.6565C58.713 55.633 59.0134 55.2143 58.7997 55.4882C58.9286 55.3229 59.0729 55.1704 59.2189 55.0205C59.3285 54.9078 59.447 54.8044 59.5654 54.7013C59.9466 54.3687 59.3073 54.8757 59.7231 54.5865C59.9832 54.4055 60.2645 54.2577 60.5502 54.1224C60.2343 54.2719 60.7106 54.0714 60.7402 54.0613C60.8931 54.0089 61.0501 53.9698 61.2068 53.9306C61.2367 53.9231 61.7618 53.8313 61.401 53.8785C61.6225 53.8495 61.846 53.8431 62.069 53.8399C62.2369 53.8375 62.4045 53.8496 62.572 53.8618C63.1023 53.9002 62.2559 53.7977 62.7721 53.8957C63.0894 53.956 63.3975 54.0563 63.6993 54.1693C63.373 54.0472 63.844 54.2477 63.8726 54.2623C64.0136 54.3338 64.1483 54.417 64.2829 54.5C64.3064 54.5146 64.7251 54.815 64.4512 54.6012C64.6165 54.7301 64.769 54.8745 64.9189 55.0205C65.0316 55.13 65.135 55.2486 65.2383 55.3669C65.5708 55.7482 65.0638 55.1088 65.3529 55.5246C65.5339 55.7848 65.6817 56.0661 65.817 56.3518C65.6675 56.0359 65.868 56.5122 65.8781 56.5418C65.9306 56.6946 65.9697 56.8516 66.0088 57.0084C66.0164 57.0383 66.1081 57.5633 66.0609 57.2026C66.0899 57.4239 66.0963 57.6476 66.0995 57.8705C66.1128 58.7955 66.8614 59.5677 67.7967 59.5677C68.7117 59.5677 69.5072 58.7958 69.4939 57.8705C69.4466 54.604 67.3716 51.8397 64.2999 50.7881C61.1726 49.7176 57.8335 51.1188 55.9438 53.6822C54.0027 56.3152 54.3561 60.0348 56.3025 62.5292C58.2129 64.9774 61.7 65.9307 64.6016 64.8451C67.527 63.7505 69.4486 60.9906 69.4937 57.8708C69.5071 56.9456 68.7116 56.1736 67.7965 56.1736C66.8614 56.1733 66.1129 56.9456 66.0995 57.8705ZM72.5985 93.2926C72.5952 93.8818 72.5548 94.4673 72.4837 95.0523C72.5324 94.65 72.4646 95.154 72.4564 95.204C72.4321 95.3564 72.4035 95.5082 72.375 95.66C72.3071 96.0201 72.2233 96.3769 72.134 96.7322C71.9766 97.3568 71.7799 97.9712 71.5626 98.5773C71.2772 99.3732 71.2035 99.5245 70.8325 100.286C70.5436 100.879 70.2201 101.455 69.8761 102.017C69.7052 102.297 69.524 102.57 69.3393 102.84C69.2475 102.975 69.1522 103.107 69.0571 103.239C68.9935 103.326 68.9292 103.413 68.864 103.499C68.9657 103.37 68.9551 103.383 68.8324 103.538C68.4387 104.036 68.0114 104.507 67.5623 104.955C67.3431 105.174 67.1139 105.383 66.8811 105.587C66.7663 105.688 66.648 105.785 66.5298 105.881C66.3765 106.003 66.3715 106.008 66.5152 105.895C66.435 105.955 66.3543 106.014 66.2727 106.072C65.7955 106.416 65.287 106.715 64.7603 106.976C64.7115 107 64.2723 107.196 64.6413 107.041C64.5099 107.096 64.376 107.145 64.242 107.195C63.9317 107.308 63.6127 107.396 63.2913 107.472C63.1541 107.505 63.0153 107.53 62.8765 107.555C62.4106 107.639 63.2396 107.519 62.7681 107.569C62.4853 107.598 62.2006 107.604 61.9166 107.601C61.7746 107.6 61.6328 107.59 61.4912 107.581C61.4225 107.576 60.9527 107.516 61.381 107.577C61.0549 107.531 60.7338 107.454 60.4164 107.368C60.1423 107.293 59.8745 107.197 59.6095 107.094C59.1651 106.923 59.9231 107.238 59.4883 107.038C59.3567 106.978 59.2281 106.912 59.0995 106.846C58.8388 106.712 58.5873 106.56 58.3391 106.405C58.2132 106.326 58.0906 106.242 57.9679 106.158C57.9165 106.123 57.4239 105.756 57.7071 105.976C57.2197 105.596 56.7674 105.174 56.3354 104.733C56.1136 104.507 55.9026 104.27 55.6948 104.032C55.5897 103.911 55.4882 103.787 55.3866 103.663C55.3189 103.58 55.2521 103.496 55.1859 103.412C55.2869 103.542 55.2774 103.528 55.1573 103.37C54.3373 102.273 53.6525 101.078 53.0725 99.8397C53.0027 99.6906 52.9364 99.5397 52.87 99.389C53.0064 99.6988 52.7946 99.2039 52.7883 99.1882C52.6663 98.8855 52.5547 98.5787 52.4471 98.2706C52.2181 97.6158 52.0304 96.9469 51.8725 96.2717C51.8015 95.9684 51.7423 95.6625 51.6875 95.3558C51.6604 95.205 51.6376 95.0535 51.6148 94.9019C51.6747 95.3001 51.6055 94.8056 51.5997 94.7536C51.5268 94.0995 51.5077 93.4414 51.53 92.7842C51.5414 92.4495 51.5731 92.1157 51.6118 91.7832C51.57 92.143 51.6452 91.6071 51.6498 91.5804C51.6775 91.4187 51.7117 91.2581 51.746 91.0977C51.8925 90.4113 52.112 89.7421 52.3745 89.0921C52.2432 89.4172 52.4516 88.9352 52.4625 88.912C52.5299 88.7674 52.603 88.6256 52.676 88.4837C52.8216 88.201 52.9836 87.9272 53.1508 87.6567C53.3175 87.3872 53.4996 87.1276 53.6865 86.8719C53.9925 86.4533 53.4837 87.1191 53.8105 86.7172C53.9435 86.5538 54.0837 86.3964 54.2248 86.2401C54.6482 85.7708 55.1159 85.3433 55.6059 84.9448C55.3379 85.1628 55.7452 84.8422 55.7658 84.8271C55.8943 84.7345 56.0246 84.6444 56.1565 84.5568C56.464 84.3497 56.7845 84.1629 57.1094 83.9848C58.1144 83.4336 59.2744 83.0508 60.6725 82.8305C60.3137 82.887 60.8548 82.8127 60.8809 82.81C61.0478 82.7929 61.215 82.7826 61.3825 82.7724C61.7209 82.7517 62.0602 82.7517 62.3991 82.7586C62.735 82.7655 63.0698 82.7928 63.4038 82.827C63.9455 82.8825 63.0744 82.7719 63.6093 82.8562C63.8257 82.8903 64.0404 82.9345 64.2545 82.9802C64.8885 83.1155 65.5076 83.3141 66.1113 83.5485C66.6015 83.7389 65.8171 83.4136 66.2954 83.629C66.441 83.6946 66.584 83.7659 66.7269 83.8371C67.0117 83.979 67.2879 84.1376 67.5606 84.3014C67.8324 84.4645 68.0944 84.6435 68.3527 84.8271C68.3731 84.8417 68.7838 85.1597 68.5125 84.9448C68.6364 85.0429 68.7565 85.1458 68.8764 85.2485C69.3964 85.694 69.8694 86.1919 70.3079 86.7171C70.6398 87.1148 70.1206 86.4573 70.4319 86.8718C70.527 86.9983 70.617 87.1287 70.7072 87.2587C70.8879 87.5197 71.0532 87.791 71.213 88.065C71.3734 88.3403 71.5176 88.625 71.6561 88.9118C71.667 88.9345 71.8798 89.4155 71.7441 89.0918C71.8062 89.2401 71.8624 89.3907 71.9185 89.5412C72.146 90.1505 72.3116 90.7813 72.4386 91.4186C72.471 91.5802 72.4966 91.7431 72.5221 91.9059C72.4655 91.5471 72.5398 92.0881 72.5426 92.1142C72.5826 92.5056 72.5957 92.8994 72.5985 93.2926C72.6048 94.2177 73.3658 94.9898 74.2957 94.9898C75.2162 94.9898 75.9992 94.2178 75.9929 93.2926C75.9519 87.2797 72.0751 81.9989 66.4087 80.054C63.6373 79.1027 60.4831 79.1431 57.7096 80.054C54.8834 80.9823 52.5301 82.7955 50.7555 85.1585C49.0169 87.4733 48.1448 90.4156 48.1253 93.2926C48.1061 96.101 48.9321 98.8643 50.0728 101.403C52.2204 106.182 56.6716 111.155 62.344 110.991C66.5166 110.871 69.8825 107.929 72.1771 104.687C74.4817 101.432 75.9701 97.2994 75.9929 93.2926C75.9981 92.3674 75.2169 91.5954 74.2957 91.5954C73.3666 91.5954 72.6037 92.3675 72.5985 93.2926ZM84.8993 126.339V136.163L86.5965 134.466H37.5412L39.2384 136.163V127.182C39.2384 125.271 39.3407 123.988 40.0734 122.123C39.9459 122.448 40.1455 121.962 40.1561 121.939C40.2222 121.793 40.2938 121.65 40.3653 121.507C40.508 121.222 40.6669 120.946 40.8308 120.672C40.9943 120.4 41.173 120.137 41.3564 119.878C41.3703 119.859 41.6867 119.445 41.4732 119.717C41.6037 119.551 41.7414 119.391 41.8798 119.232C42.8477 118.12 43.5225 117.597 44.7122 116.903C45.1265 116.661 45.5585 116.452 45.9974 116.259C45.6962 116.392 46.2848 116.157 46.3407 116.136C46.5944 116.044 46.8527 115.965 47.1118 115.89C47.584 115.752 48.0661 115.652 48.5509 115.571C48.7552 115.54 48.769 115.538 48.5925 115.562C48.7583 115.541 48.9248 115.527 49.0912 115.513C49.3716 115.488 49.6532 115.479 49.9346 115.474C50.9693 115.453 52.0059 115.472 53.0407 115.472C52.6407 115.307 52.2406 115.141 51.8407 114.975L60.906 126.285C61.4402 126.951 62.7731 126.955 63.3062 126.285L72.2971 114.975C71.8971 115.141 71.497 115.307 71.0971 115.472C72.1324 115.472 73.1679 115.467 74.2032 115.474C74.4287 115.475 74.6541 115.487 74.8791 115.5C74.9907 115.508 75.1021 115.517 75.2135 115.527C75.2381 115.529 75.783 115.596 75.4234 115.546C75.9652 115.622 76.4994 115.744 77.0261 115.89C77.2344 115.948 77.4399 116.015 77.6449 116.083C77.7467 116.118 77.8481 116.154 77.9491 116.192C77.9714 116.2 78.4636 116.396 78.1406 116.26C78.6311 116.467 79.1035 116.715 79.5633 116.983C81.1662 117.918 82.437 119.223 83.3891 120.809C83.6355 121.22 83.8503 121.649 84.0481 122.085C84.1284 122.268 84.1339 122.281 84.0647 122.123C84.1255 122.272 84.1804 122.424 84.2355 122.575C84.3277 122.829 84.4067 123.087 84.4822 123.346C84.6353 123.871 84.7431 124.409 84.8261 124.949C84.8028 124.772 84.8034 124.786 84.8282 124.993C84.8471 125.159 84.8593 125.326 84.8714 125.493C84.8919 125.775 84.8975 126.057 84.8993 126.339C84.9055 127.264 85.6667 128.036 86.5965 128.036C87.5171 128.036 88.2999 127.264 88.2937 126.339C88.2537 120.306 84.4596 115.039 78.8512 112.919C76.6883 112.101 74.4274 112.078 72.1532 112.078C71.3859 112.078 70.3958 111.948 69.8568 112.626L69.1376 113.53L60.9059 123.885H63.3061L58.021 117.291L54.9121 113.413L54.2613 112.601C53.707 111.91 52.5399 112.078 51.7509 112.078C49.4345 112.078 47.1756 112.174 44.9863 113.034C42.2224 114.12 39.9271 115.984 38.2437 118.425C36.6623 120.719 35.844 123.571 35.844 126.347V136.163C35.844 137.088 36.616 137.86 37.5412 137.86H86.5965C87.5217 137.86 88.2937 137.088 88.2937 136.163V126.339C88.2937 125.414 87.5217 124.642 86.5965 124.642C85.6713 124.642 84.8993 125.414 84.8993 126.339Z" fill="#00B8B8"/>
</svg>
