<svg width="48" height="49" viewBox="0 0 48 49" fill="none" xmlns="http://www.w3.org/2000/svg">
<path d="M9.74983 22.4603V35.9584C9.74886 36.1341 9.8096 36.3046 9.92146 36.4401C11.9749 38.9042 15.4583 40.4048 18.4256 41.362C21.3929 42.3192 23.8846 42.7019 23.8846 42.7019C23.9616 42.714 24.0401 42.714 24.1171 42.7019C24.1171 42.7019 26.6088 42.3192 29.5761 41.362C32.5434 40.4048 36.0212 38.9042 38.0747 36.4401C38.1886 36.3053 38.2513 36.1348 38.2519 35.9584V22.4603H36.7515V35.5764C35.0254 37.5442 31.8991 39.036 29.1166 39.9336C26.3344 40.8311 24.1033 41.1744 24.0008 41.1904C23.8984 41.1744 21.6673 40.8311 18.8851 39.9336C16.1026 39.036 12.9763 37.5442 11.2502 35.5764V22.4603H9.74983Z" fill="#1D2E2E"/>
<path d="M23.8957 6.71445C13.049 8.26399 2.51359 17.3889 2.51359 17.3889C2.15562 17.6958 2.16628 18.253 2.53574 18.546C2.53574 18.546 13.0836 26.9063 23.8957 28.4509C23.9654 28.4608 24.0363 28.4608 24.106 28.4509C34.9181 26.9063 45.466 18.546 45.466 18.546C45.8354 18.253 45.8461 17.6958 45.4881 17.3889C45.4881 17.3889 34.9527 8.26399 24.106 6.71446L24.0005 6.70746L23.8957 6.71445ZM24.0008 8.23147C33.4636 9.6316 42.4522 16.9246 43.6721 17.9315C42.4242 18.8767 33.4786 25.5426 24.0008 26.9394C14.5231 25.5426 5.57747 18.8767 4.32957 17.9315C5.54952 16.9246 14.5381 9.6316 24.0008 8.23147Z" fill="#1D2E2E"/>
<path d="M23.9676 15.7058C23.029 15.7132 22.9525 17.0893 23.8846 17.2006L42.0001 20.0962V35.2054H43.5005V18.8173L24.1171 15.7168C24.0678 15.7082 24.0177 15.7045 23.9676 15.7058Z" fill="#1D2E2E"/>
<path d="M41.2527 34.458C41.0791 34.4578 40.9108 34.5179 40.7765 34.628C40.6422 34.738 40.5503 34.8912 40.5163 35.0615L39.7634 38.8097C39.7416 38.9186 39.7443 39.0309 39.7713 39.1386C39.7982 39.2463 39.8487 39.3467 39.9192 39.4325C39.9896 39.5183 40.0782 39.5874 40.1786 39.6348C40.279 39.6822 40.3887 39.7067 40.4997 39.7066H45.0009C45.1119 39.7067 45.2216 39.6822 45.322 39.6348C45.4224 39.5874 45.511 39.5183 45.5814 39.4325C45.6519 39.3467 45.7024 39.2463 45.7293 39.1386C45.7563 39.0309 45.759 38.9186 45.7373 38.8097L44.9843 35.0615C44.9506 34.8922 44.8594 34.7396 44.7263 34.6297C44.5931 34.5198 44.4261 34.4591 44.2535 34.458H41.2527ZM41.8672 35.9584H43.6389L44.0874 38.2062H41.4188L41.8672 35.9584Z" fill="#1D2E2E"/>
</svg>
