<svg width="22" height="22" viewBox="0 0 22 22" fill="none" xmlns="http://www.w3.org/2000/svg">
<path d="M19.2666 2.73341C18.9885 2.45518 18.6582 2.23448 18.2947 2.08391C17.9312 1.93334 17.5416 1.85583 17.1482 1.85583C16.7547 1.85583 16.3651 1.93334 16.0016 2.08391C15.6382 2.23448 15.3079 2.45518 15.0297 2.73341L3.76341 13.9997C3.42817 14.3349 3.18436 14.7509 3.05712 15.2081L1.87845 19.4176C1.85122 19.5152 1.85042 19.6182 1.87613 19.7162C1.90185 19.8142 1.95315 19.9036 2.02479 19.9753C2.09643 20.0469 2.18582 20.0982 2.28381 20.1239C2.38181 20.1496 2.48487 20.1488 2.58245 20.1216L6.79122 18.9429C7.24831 18.815 7.66474 18.5715 8.00036 18.2359L19.2666 6.9696C19.8283 6.40779 20.1438 5.64591 20.1438 4.8515C20.1438 4.05709 19.8283 3.29521 19.2666 2.73341ZM15.8381 3.54103C16.1856 3.19357 16.657 2.99841 17.1484 2.99848C17.6399 2.99855 18.1112 3.19385 18.4586 3.54141C18.8061 3.88897 19.0013 4.36032 19.0012 4.85177C19.0011 5.34322 18.8058 5.81452 18.4583 6.16198L17.2849 7.33455L14.6647 4.7136L15.8381 3.54103ZM13.8571 5.52198L16.4781 8.14293L7.19198 17.4283C6.9953 17.625 6.75127 17.7677 6.48341 17.8427L3.25217 18.7471L4.15655 15.5166C4.2317 15.2488 4.37443 15.0048 4.57103 14.8081L13.8571 5.52198Z" fill="white"/>
</svg>
