<svg width="25" height="24" viewBox="0 0 25 24" fill="none" xmlns="http://www.w3.org/2000/svg">
<path d="M11.4622 16.0611H7.53C6.27667 16.0611 5.20852 15.6196 4.32556 14.7367C3.44259 13.8537 3.00074 12.7852 3 11.5311C2.99926 10.277 3.44111 9.20852 4.32556 8.32556C5.21 7.44259 6.27815 7.00074 7.53 7H11.4622V8.11111H7.53C6.58926 8.11111 5.78445 8.44593 5.11556 9.11556C4.44593 9.78593 4.11111 10.5911 4.11111 11.5311C4.11111 12.4711 4.44593 13.2759 5.11556 13.9456C5.78519 14.6152 6.59 14.95 7.53 14.95H11.4622V16.0611ZM9.11111 12.0867V10.9756H16.8889V12.0867H9.11111ZM14.5389 16.0611V14.95H18.47C19.4107 14.95 20.2156 14.6152 20.8844 13.9456C21.5541 13.2759 21.8889 12.4711 21.8889 11.5311C21.8889 10.5911 21.5541 9.7863 20.8844 9.11667C20.2148 8.44704 19.41 8.11222 18.47 8.11222H14.5389V7.00111H18.47C19.7233 7.00111 20.7919 7.44259 21.6756 8.32556C22.5593 9.20852 23.0007 10.277 23 11.5311C22.9993 12.7852 22.5574 13.8537 21.6744 14.7367C20.7915 15.6196 19.7233 16.0615 18.47 16.0622L14.5389 16.0611Z" fill="#1D2E2E"/>
</svg>
