<svg width="24" height="24" viewBox="0 0 24 24" fill="none" xmlns="http://www.w3.org/2000/svg">
<path d="M6.81289 8.86531C6.81265 8.86531 6.81307 8.86531 6.81289 8.86531H2.89288C2.62244 8.86513 2.40313 9.08426 2.40295 9.35464C2.40295 9.35446 2.40295 9.35488 2.40295 9.35464V21.1135C2.40277 21.3839 2.6219 21.6032 2.89228 21.6034C2.8921 21.6034 2.89252 21.6034 2.89228 21.6034H6.81229C7.08273 21.6036 7.30203 21.3844 7.30221 21.114C7.30221 21.1138 7.30221 21.1142 7.30221 21.114V9.35524C7.30239 9.0848 7.08327 8.86549 6.81289 8.86531ZM6.32236 20.6235H3.3828V9.84516H6.32236V20.6235ZM17.1007 8.86531C16.0378 8.86537 15.0045 9.21619 14.1612 9.86334V9.35524C14.1614 9.0848 13.9422 8.86549 13.6719 8.86531C13.6716 8.86531 13.672 8.86531 13.6719 8.86531H9.75184C9.4814 8.86513 9.2621 9.08426 9.26192 9.35464C9.26192 9.35446 9.26192 9.35488 9.26192 9.35464V21.1135C9.26174 21.3839 9.48087 21.6032 9.75131 21.6034C9.75113 21.6034 9.75149 21.6034 9.75131 21.6034H13.6713C13.9417 21.6036 14.161 21.3844 14.1612 21.114C14.1612 21.1138 14.1612 21.1142 14.1612 21.114V15.7243C14.1612 14.9125 14.8192 14.2545 15.631 14.2545C16.4427 14.2545 17.1007 14.9125 17.1007 15.7243V21.1135C17.1006 21.3839 17.3197 21.6032 17.5901 21.6034C17.5899 21.6034 17.5903 21.6034 17.5901 21.6034H21.5101C21.7805 21.6036 21.9998 21.3844 22 21.114C22 21.1138 22 21.1142 22 21.114V13.7646C21.9968 11.0601 19.8052 8.86848 17.1007 8.86531ZM21.0201 20.6235H18.0806V15.7243C18.0806 14.3714 16.9839 13.2746 15.631 13.2746C14.278 13.2746 13.1813 14.3714 13.1813 15.7243V20.6235H10.2418V9.84516H13.1813V11.024C13.1813 11.2322 13.313 11.4176 13.5096 11.4862C13.7057 11.5569 13.9251 11.4941 14.0541 11.3303C15.3892 9.63824 17.8431 9.34896 19.5351 10.6841C20.4776 11.4279 21.0254 12.564 21.0201 13.7646V20.6235ZM5.21315 2.00814C5.0979 2.00007 4.98224 1.99947 4.86694 2.00635C3.38807 1.90533 2.10733 3.02232 2.00632 4.50119C2.00226 4.5607 2.00022 4.62026 2.0001 4.67989C1.98736 6.1462 3.16571 7.34518 4.63202 7.35792C4.69189 7.35845 4.75169 7.3569 4.81144 7.35337H4.83919C6.31524 7.45665 7.5955 6.34379 7.69878 4.86774C7.80207 3.39168 6.68921 2.11142 5.21315 2.00814ZM5.1793 6.37633C5.06615 6.38673 4.95216 6.38584 4.83919 6.37352H4.81144C3.87458 6.44552 3.0568 5.74448 2.9848 4.80763C2.91279 3.87084 3.61383 3.053 4.55068 2.98099C4.65606 2.97292 4.76192 2.97466 4.86694 2.9862C5.80307 2.89996 6.63191 3.58892 6.71821 4.52505C6.80445 5.46125 6.11549 6.29009 5.1793 6.37633Z" fill="#1D2E2E"/>
</svg>
