<svg width="102" height="20" viewBox="0 0 102 20" fill="none" xmlns="http://www.w3.org/2000/svg">
<rect width="102" height="20" rx="10" fill="#EDFAFF"/>
<rect x="8" y="4" width="12" height="12" rx="6" fill="#DCF4FF"/>
<circle cx="14" cy="10" r="2" fill="#002736"/>
<path d="M24.9832 14V6.72727H27.4406C28.0112 6.72727 28.4775 6.83026 28.8398 7.03622C29.2043 7.23982 29.4742 7.51562 29.6494 7.86364C29.8246 8.21165 29.9122 8.59991 29.9122 9.02841C29.9122 9.45691 29.8246 9.84635 29.6494 10.1967C29.4766 10.5471 29.2091 10.8265 28.8469 11.0348C28.4846 11.2408 28.0206 11.3438 27.4548 11.3438H25.6934V10.5625H27.4264C27.817 10.5625 28.1307 10.495 28.3675 10.3601C28.6042 10.2251 28.7758 10.0429 28.8824 9.81321C28.9913 9.5812 29.0457 9.3196 29.0457 9.02841C29.0457 8.73722 28.9913 8.4768 28.8824 8.24716C28.7758 8.01752 28.603 7.83759 28.3639 7.70739C28.1248 7.57481 27.8076 7.50852 27.4122 7.50852H25.8639V14H24.9832ZM31.2172 14V8.54545H32.0269V9.36932H32.0837C32.1831 9.09943 32.3631 8.88045 32.6235 8.71236C32.8839 8.54427 33.1775 8.46023 33.5042 8.46023C33.5657 8.46023 33.6427 8.46141 33.735 8.46378C33.8273 8.46615 33.8972 8.4697 33.9445 8.47443V9.3267C33.9161 9.3196 33.851 9.30895 33.7492 9.29474C33.6498 9.27817 33.5444 9.26989 33.4331 9.26989C33.168 9.26989 32.9313 9.32552 32.7229 9.43679C32.517 9.54569 32.3536 9.69721 32.2329 9.89134C32.1145 10.0831 32.0553 10.3021 32.0553 10.5483V14H31.2172ZM36.9878 14.1136C36.4954 14.1136 36.0634 13.9964 35.6917 13.7621C35.3224 13.5277 35.0335 13.1998 34.8252 12.7784C34.6192 12.357 34.5162 11.8646 34.5162 11.3011C34.5162 10.733 34.6192 10.237 34.8252 9.81321C35.0335 9.38944 35.3224 9.06037 35.6917 8.82599C36.0634 8.59162 36.4954 8.47443 36.9878 8.47443C37.4803 8.47443 37.9111 8.59162 38.2805 8.82599C38.6521 9.06037 38.941 9.38944 39.1469 9.81321C39.3553 10.237 39.4594 10.733 39.4594 11.3011C39.4594 11.8646 39.3553 12.357 39.1469 12.7784C38.941 13.1998 38.6521 13.5277 38.2805 13.7621C37.9111 13.9964 37.4803 14.1136 36.9878 14.1136ZM36.9878 13.3608C37.3619 13.3608 37.6697 13.2649 37.9111 13.0732C38.1526 12.8814 38.3314 12.6293 38.4474 12.3168C38.5634 12.0043 38.6214 11.6657 38.6214 11.3011C38.6214 10.9366 38.5634 10.5968 38.4474 10.282C38.3314 9.96709 38.1526 9.71259 37.9111 9.51847C37.6697 9.32434 37.3619 9.22727 36.9878 9.22727C36.6138 9.22727 36.306 9.32434 36.0645 9.51847C35.8231 9.71259 35.6443 9.96709 35.5283 10.282C35.4123 10.5968 35.3543 10.9366 35.3543 11.3011C35.3543 11.6657 35.4123 12.0043 35.5283 12.3168C35.6443 12.6293 35.8231 12.8814 36.0645 13.0732C36.306 13.2649 36.6138 13.3608 36.9878 13.3608ZM40.7387 8.54545H41.5768V14.3977C41.5768 14.7339 41.5188 15.0251 41.4028 15.2713C41.2892 15.5175 41.1163 15.7081 40.8843 15.843C40.6547 15.978 40.3647 16.0455 40.0143 16.0455C39.9859 16.0455 39.9575 16.0455 39.9291 16.0455C39.9007 16.0455 39.8722 16.0455 39.8438 16.0455V15.2642C39.8722 15.2642 39.8983 15.2642 39.922 15.2642C39.9456 15.2642 39.9717 15.2642 40.0001 15.2642C40.2558 15.2642 40.4428 15.1884 40.5612 15.0369C40.6795 14.8878 40.7387 14.6747 40.7387 14.3977V8.54545ZM41.1507 7.63636C40.9873 7.63636 40.8464 7.58073 40.7281 7.46946C40.6121 7.35819 40.5541 7.22443 40.5541 7.06818C40.5541 6.91193 40.6121 6.77817 40.7281 6.6669C40.8464 6.55563 40.9873 6.5 41.1507 6.5C41.314 6.5 41.4537 6.55563 41.5697 6.6669C41.6881 6.77817 41.7472 6.91193 41.7472 7.06818C41.7472 7.22443 41.6881 7.35819 41.5697 7.46946C41.4537 7.58073 41.314 7.63636 41.1507 7.63636ZM45.3987 14.1136C44.8731 14.1136 44.4198 13.9976 44.0386 13.7656C43.6598 13.5312 43.3675 13.2045 43.1615 12.7855C42.9579 12.3641 42.8561 11.8741 42.8561 11.3153C42.8561 10.7566 42.9579 10.2642 43.1615 9.83807C43.3675 9.40956 43.6539 9.07576 44.0209 8.83665C44.3902 8.59517 44.8211 8.47443 45.3135 8.47443C45.5976 8.47443 45.8781 8.52178 46.1551 8.61648C46.4321 8.71117 46.6842 8.86506 46.9115 9.07812C47.1388 9.28883 47.3199 9.56818 47.4548 9.91619C47.5898 10.2642 47.6572 10.6927 47.6572 11.2017V11.5568H43.4527V10.8324H46.805C46.805 10.5246 46.7434 10.25 46.6203 10.0085C46.4996 9.76705 46.3267 9.57647 46.1018 9.43679C45.8793 9.29711 45.6165 9.22727 45.3135 9.22727C44.9797 9.22727 44.6908 9.31013 44.447 9.47585C44.2055 9.6392 44.0197 9.85227 43.8895 10.1151C43.7593 10.3778 43.6942 10.6596 43.6942 10.9602V11.4432C43.6942 11.8551 43.7652 12.2043 43.9072 12.4908C44.0516 12.7749 44.2517 12.9915 44.5074 13.1406C44.7631 13.2874 45.0602 13.3608 45.3987 13.3608C45.6189 13.3608 45.8177 13.33 45.9953 13.2685C46.1752 13.2045 46.3303 13.1098 46.4605 12.9844C46.5907 12.8565 46.6913 12.6979 46.7623 12.5085L47.572 12.7358C47.4868 13.0104 47.3435 13.2519 47.1423 13.4602C46.9411 13.6662 46.6925 13.8272 46.3966 13.9432C46.1006 14.0568 45.768 14.1136 45.3987 14.1136ZM51.148 14.1136C50.6366 14.1136 50.1963 13.9929 49.827 13.7514C49.4577 13.5099 49.1736 13.1773 48.9747 12.7536C48.7758 12.3298 48.6764 11.8456 48.6764 11.3011C48.6764 10.7472 48.7782 10.2583 48.9818 9.83452C49.1878 9.40838 49.4742 9.07576 49.8412 8.83665C50.2105 8.59517 50.6414 8.47443 51.1338 8.47443C51.5173 8.47443 51.863 8.54545 52.1707 8.6875C52.4785 8.82955 52.7306 9.02841 52.9271 9.28409C53.1236 9.53977 53.2455 9.83807 53.2929 10.179H52.4548C52.3909 9.9304 52.2488 9.71023 52.0287 9.51847C51.8109 9.32434 51.5173 9.22727 51.148 9.22727C50.8213 9.22727 50.5348 9.3125 50.2886 9.48295C50.0448 9.65104 49.8542 9.88897 49.7169 10.1967C49.5819 10.5021 49.5145 10.8608 49.5145 11.2727C49.5145 11.6941 49.5808 12.0611 49.7133 12.3736C49.8483 12.6861 50.0377 12.9287 50.2815 13.1016C50.5277 13.2744 50.8166 13.3608 51.148 13.3608C51.3658 13.3608 51.5635 13.3229 51.741 13.2472C51.9186 13.1714 52.0689 13.0625 52.192 12.9205C52.3151 12.7784 52.4027 12.608 52.4548 12.4091H53.2929C53.2455 12.7311 53.1283 13.0211 52.9413 13.2791C52.7567 13.5348 52.5116 13.7384 52.2062 13.8899C51.9032 14.0391 51.5505 14.1136 51.148 14.1136ZM56.8902 8.54545V9.25568H54.0635V8.54545H56.8902ZM54.8873 7.23864H55.7254V12.4375C55.7254 12.6742 55.7597 12.8518 55.8284 12.9702C55.8994 13.0862 55.9894 13.1643 56.0983 13.2045C56.2095 13.2424 56.3267 13.2614 56.4498 13.2614C56.5422 13.2614 56.6179 13.2566 56.6771 13.2472C56.7363 13.2353 56.7836 13.2259 56.8192 13.2188L56.9896 13.9716C56.9328 13.9929 56.8535 14.0142 56.7517 14.0355C56.6499 14.0592 56.5209 14.071 56.3646 14.071C56.1279 14.071 55.8959 14.0201 55.6686 13.9183C55.4437 13.8165 55.2567 13.6615 55.1075 13.4531C54.9607 13.2448 54.8873 12.982 54.8873 12.6648V7.23864ZM64.0883 10.4915V11.2727H60.9065V10.4915H64.0883ZM65.6766 14V6.72727H66.5146V9.41193H66.5857C66.6472 9.31723 66.7325 9.1965 66.8414 9.04972C66.9526 8.90057 67.1112 8.76799 67.3172 8.65199C67.5255 8.53362 67.8073 8.47443 68.1624 8.47443C68.6217 8.47443 69.0265 8.58925 69.3769 8.81889C69.7272 9.04853 70.0007 9.37405 70.1972 9.79545C70.3937 10.2169 70.4919 10.714 70.4919 11.2869C70.4919 11.8646 70.3937 12.3653 70.1972 12.7891C70.0007 13.2105 69.7284 13.5372 69.3804 13.7692C69.0324 13.9988 68.6311 14.1136 68.1766 14.1136C67.8262 14.1136 67.5457 14.0556 67.335 13.9396C67.1243 13.8213 66.9621 13.6875 66.8485 13.5384C66.7348 13.3868 66.6472 13.2614 66.5857 13.1619H66.4862V14H65.6766ZM66.5004 11.2727C66.5004 11.6847 66.5608 12.0481 66.6816 12.3629C66.8023 12.6754 66.9787 12.9205 67.2107 13.098C67.4427 13.2732 67.7268 13.3608 68.0629 13.3608C68.4133 13.3608 68.7057 13.2685 68.9401 13.0838C69.1768 12.8968 69.3544 12.6458 69.4727 12.331C69.5935 12.0137 69.6539 11.661 69.6539 11.2727C69.6539 10.8892 69.5947 10.5436 69.4763 10.2358C69.3603 9.92566 69.1839 9.68063 68.9472 9.50071C68.7128 9.31842 68.4181 9.22727 68.0629 9.22727C67.722 9.22727 67.4356 9.31368 67.2036 9.48651C66.9716 9.65696 66.7964 9.89607 66.678 10.2038C66.5596 10.5092 66.5004 10.8655 66.5004 11.2727ZM73.379 14.1278C73.0334 14.1278 72.7197 14.0627 72.4379 13.9325C72.1562 13.8 71.9325 13.6094 71.7668 13.3608C71.6011 13.1098 71.5182 12.8068 71.5182 12.4517C71.5182 12.1392 71.5798 11.8859 71.7029 11.6918C71.826 11.4953 71.9905 11.3414 72.1965 11.2301C72.4024 11.1188 72.6297 11.036 72.8783 10.9815C73.1292 10.9247 73.3814 10.8797 73.6347 10.8466C73.9661 10.804 74.2348 10.772 74.4408 10.7507C74.6491 10.727 74.8006 10.688 74.8953 10.6335C74.9924 10.5791 75.0409 10.4844 75.0409 10.3494V10.321C75.0409 9.97064 74.945 9.69839 74.7533 9.50426C74.5639 9.31013 74.2762 9.21307 73.8904 9.21307C73.4903 9.21307 73.1766 9.30066 72.9493 9.47585C72.722 9.65104 72.5622 9.83807 72.4699 10.0369L71.6744 9.75284C71.8165 9.4214 72.0059 9.16335 72.2426 8.97869C72.4817 8.79167 72.7422 8.66146 73.0239 8.58807C73.308 8.51231 73.5873 8.47443 73.8619 8.47443C74.0371 8.47443 74.2384 8.49574 74.4656 8.53835C74.6953 8.5786 74.9166 8.66264 75.1297 8.79048C75.3451 8.91832 75.5239 9.11127 75.6659 9.36932C75.808 9.62737 75.879 9.97301 75.879 10.4062V14H75.0409V13.2614H74.9983C74.9415 13.3797 74.8468 13.5064 74.7142 13.6413C74.5816 13.7763 74.4053 13.8911 74.1851 13.9858C73.9649 14.0805 73.6962 14.1278 73.379 14.1278ZM73.5068 13.375C73.8383 13.375 74.1176 13.3099 74.3449 13.1797C74.5745 13.0495 74.7474 12.8814 74.8634 12.6754C74.9817 12.4695 75.0409 12.2528 75.0409 12.0256V11.2585C75.0054 11.3011 74.9273 11.3402 74.8066 11.3757C74.6882 11.4089 74.5509 11.4384 74.3946 11.4645C74.2407 11.4882 74.0904 11.5095 73.9436 11.5284C73.7992 11.545 73.682 11.5592 73.5921 11.571C73.3743 11.5994 73.1707 11.6456 72.9813 11.7095C72.7942 11.7711 72.6427 11.8646 72.5267 11.9901C72.4131 12.1132 72.3563 12.2812 72.3563 12.4943C72.3563 12.7855 72.464 13.0057 72.6794 13.1548C72.8972 13.3016 73.173 13.375 73.5068 13.375ZM81.2723 9.76705L80.5194 9.98011C80.4721 9.85464 80.4023 9.73272 80.3099 9.61435C80.22 9.49361 80.0969 9.39418 79.9406 9.31605C79.7844 9.23793 79.5843 9.19886 79.3405 9.19886C79.0067 9.19886 78.7285 9.2758 78.5059 9.42969C78.2858 9.5812 78.1757 9.77415 78.1757 10.0085C78.1757 10.2169 78.2515 10.3814 78.403 10.5021C78.5545 10.6229 78.7912 10.7235 79.1132 10.804L79.9229 11.0028C80.4105 11.1212 80.7739 11.3023 81.0131 11.5462C81.2522 11.7876 81.3717 12.099 81.3717 12.4801C81.3717 12.7926 81.2818 13.072 81.1018 13.3182C80.9243 13.5644 80.6757 13.7585 80.3561 13.9006C80.0365 14.0426 79.6648 14.1136 79.241 14.1136C78.6847 14.1136 78.2242 13.9929 77.8596 13.7514C77.4951 13.5099 77.2642 13.1572 77.1672 12.6932L77.9626 12.4943C78.0384 12.7879 78.1816 13.008 78.3923 13.1548C78.6054 13.3016 78.8836 13.375 79.2268 13.375C79.6175 13.375 79.9276 13.2921 80.1572 13.1264C80.3892 12.9583 80.5052 12.7571 80.5052 12.5227C80.5052 12.3333 80.439 12.1747 80.3064 12.0469C80.1738 11.9167 79.9702 11.8196 79.6956 11.7557L78.7865 11.5426C78.287 11.4242 77.92 11.2408 77.6856 10.9922C77.4536 10.7412 77.3376 10.4276 77.3376 10.0511C77.3376 9.74337 77.424 9.47112 77.5969 9.23438C77.772 8.99763 78.01 8.81179 78.3106 8.67685C78.6137 8.5419 78.9569 8.47443 79.3405 8.47443C79.8802 8.47443 80.304 8.5928 80.6118 8.82955C80.9219 9.06629 81.1421 9.37879 81.2723 9.76705ZM84.9202 14.1136C84.3946 14.1136 83.9413 13.9976 83.5601 13.7656C83.1813 13.5312 82.8889 13.2045 82.683 12.7855C82.4794 12.3641 82.3776 11.8741 82.3776 11.3153C82.3776 10.7566 82.4794 10.2642 82.683 9.83807C82.8889 9.40956 83.1754 9.07576 83.5423 8.83665C83.9117 8.59517 84.3425 8.47443 84.835 8.47443C85.1191 8.47443 85.3996 8.52178 85.6766 8.61648C85.9536 8.71117 86.2057 8.86506 86.433 9.07812C86.6602 9.28883 86.8414 9.56818 86.9763 9.91619C87.1112 10.2642 87.1787 10.6927 87.1787 11.2017V11.5568H82.9742V10.8324H86.3264C86.3264 10.5246 86.2649 10.25 86.1418 10.0085C86.021 9.76705 85.8482 9.57647 85.6233 9.43679C85.4008 9.29711 85.138 9.22727 84.835 9.22727C84.5012 9.22727 84.2123 9.31013 83.9685 9.47585C83.727 9.6392 83.5412 9.85227 83.411 10.1151C83.2807 10.3778 83.2156 10.6596 83.2156 10.9602V11.4432C83.2156 11.8551 83.2867 12.2043 83.4287 12.4908C83.5731 12.7749 83.7732 12.9915 84.0289 13.1406C84.2845 13.2874 84.5816 13.3608 84.9202 13.3608C85.1404 13.3608 85.3392 13.33 85.5168 13.2685C85.6967 13.2045 85.8518 13.1098 85.982 12.9844C86.1122 12.8565 86.2128 12.6979 86.2838 12.5085L87.0935 12.7358C87.0083 13.0104 86.865 13.2519 86.6638 13.4602C86.4626 13.6662 86.214 13.8272 85.9181 13.9432C85.6221 14.0568 85.2895 14.1136 84.9202 14.1136ZM90.5132 14.1136C90.0587 14.1136 89.6574 13.9988 89.3094 13.7692C88.9614 13.5372 88.6891 13.2105 88.4926 12.7891C88.2961 12.3653 88.1979 11.8646 88.1979 11.2869C88.1979 10.714 88.2961 10.2169 88.4926 9.79545C88.6891 9.37405 88.9626 9.04853 89.3129 8.81889C89.6633 8.58925 90.0682 8.47443 90.5274 8.47443C90.8825 8.47443 91.1631 8.53362 91.3691 8.65199C91.5774 8.76799 91.736 8.90057 91.8449 9.04972C91.9562 9.1965 92.0426 9.31723 92.1041 9.41193H92.1752V6.72727H93.0132V14H92.2036V13.1619H92.1041C92.0426 13.2614 91.955 13.3868 91.8414 13.5384C91.7277 13.6875 91.5655 13.8213 91.3548 13.9396C91.1441 14.0556 90.8636 14.1136 90.5132 14.1136ZM90.6269 13.3608C90.963 13.3608 91.2471 13.2732 91.4791 13.098C91.7111 12.9205 91.8875 12.6754 92.0083 12.3629C92.129 12.0481 92.1894 11.6847 92.1894 11.2727C92.1894 10.8655 92.1302 10.5092 92.0118 10.2038C91.8934 9.89607 91.7182 9.65696 91.4862 9.48651C91.2542 9.31368 90.9678 9.22727 90.6269 9.22727C90.2718 9.22727 89.9758 9.31842 89.7391 9.50071C89.5047 9.68063 89.3283 9.92566 89.21 10.2358C89.094 10.5436 89.036 10.8892 89.036 11.2727C89.036 11.661 89.0951 12.0137 89.2135 12.331C89.3343 12.6458 89.5118 12.8968 89.7462 13.0838C89.9829 13.2685 90.2765 13.3608 90.6269 13.3608Z" fill="#1D2E2E" fill-opacity="0.8"/>
</svg>
