<svg width="24" height="24" viewBox="0 0 24 24" fill="none" xmlns="http://www.w3.org/2000/svg">
<path d="M12.871 3V11.129H21V3H12.871ZM19.2581 9.3871H14.6129V4.74194H19.2581V9.3871ZM3 11.129H11.129V3H3V11.129ZM4.74194 4.74194H9.3871V9.3871H4.74194V4.74194ZM3 21H11.129V12.871H3V21ZM4.74194 14.6129H9.3871V19.2581H4.74194V14.6129ZM12.871 12.871H14.9032V14.9032H12.871V12.871ZM16.9355 12.871H18.9677V14.9032H16.9355V12.871ZM14.9032 14.9032H16.9355V16.9355H14.9032V14.9032ZM18.9677 14.9032H21V16.9355H18.9677V14.9032ZM12.871 16.9355H14.9032V18.9677H12.871V16.9355ZM16.9355 16.9355H18.9677V18.9677H16.9355V16.9355ZM14.9032 18.9677H16.9355V21H14.9032V18.9677ZM18.9677 18.9677H21V21H18.9677V18.9677Z" fill="#1D2E2E" fill-opacity="0.8"/>
</svg>
