<svg width="12" height="13" viewBox="0 0 12 13" fill="none" xmlns="http://www.w3.org/2000/svg">
<rect y="0.666016" width="11.6609" height="11.6667" rx="2" fill="#44C566"/>
<path d="M3.43749 9.5625H6.25499C6.49416 9.5625 6.69249 9.36417 6.69249 9.125C6.69249 8.88583 6.49416 8.6875 6.25499 8.6875H4.49333L8.99666 4.18417C9.16583 4.015 9.16583 3.735 8.99666 3.56583C8.90916 3.47833 8.79833 3.4375 8.68749 3.4375C8.57666 3.4375 8.46583 3.47833 8.37833 3.56583L3.87499 8.06917V6.3075C3.87499 6.06833 3.67666 5.87 3.43749 5.87C3.19833 5.87 2.99999 6.06833 2.99999 6.3075V9.125C2.99999 9.36417 3.19833 9.5625 3.43749 9.5625Z" fill="#EFFAF2"/>
</svg>
