<svg width="90" height="20" viewBox="0 0 90 20" fill="none" xmlns="http://www.w3.org/2000/svg">
<rect width="90" height="20" rx="10" fill="#EDFAFF"/>
<rect x="8" y="4" width="12" height="12" rx="6" fill="#DCF4FF"/>
<circle cx="14" cy="10" r="2" fill="#002736"/>
<path d="M24.982 7.50852V6.72727H30.4365V7.50852H28.1496V14H27.2689V7.50852H24.982ZM31.6821 14V8.54545H32.5202V14H31.6821ZM32.1082 7.63636C31.9449 7.63636 31.804 7.58073 31.6856 7.46946C31.5696 7.35819 31.5116 7.22443 31.5116 7.06818C31.5116 6.91193 31.5696 6.77817 31.6856 6.6669C31.804 6.55563 31.9449 6.5 32.1082 6.5C32.2716 6.5 32.4113 6.55563 32.5273 6.6669C32.6456 6.77817 32.7048 6.91193 32.7048 7.06818C32.7048 7.22443 32.6456 7.35819 32.5273 7.46946C32.4113 7.58073 32.2716 7.63636 32.1082 7.63636ZM34.0551 14V8.54545H34.8648V9.39773H34.9358C35.0494 9.10653 35.2329 8.88045 35.4862 8.71946C35.7396 8.55611 36.0438 8.47443 36.3989 8.47443C36.7587 8.47443 37.0582 8.55611 37.2973 8.71946C37.5388 8.88045 37.727 9.10653 37.8619 9.39773H37.9188C38.0584 9.116 38.268 8.89228 38.5473 8.72656C38.8267 8.55848 39.1617 8.47443 39.5523 8.47443C40.04 8.47443 40.4389 8.62713 40.749 8.93253C41.0592 9.23556 41.2142 9.70786 41.2142 10.3494V14H40.3762V10.3494C40.3762 9.94697 40.2661 9.65933 40.0459 9.48651C39.8257 9.31368 39.5665 9.22727 39.2682 9.22727C38.8847 9.22727 38.5876 9.34328 38.3769 9.57528C38.1662 9.80492 38.0608 10.0961 38.0608 10.4489V14H37.2085V10.2642C37.2085 9.95407 37.1079 9.70431 36.9067 9.51491C36.7055 9.32315 36.4462 9.22727 36.129 9.22727C35.9112 9.22727 35.7076 9.28527 35.5182 9.40128C35.3312 9.51728 35.1797 9.67827 35.0637 9.88423C34.95 10.0878 34.8932 10.3234 34.8932 10.5909V14H34.0551ZM45.0335 14.1136C44.5079 14.1136 44.0545 13.9976 43.6734 13.7656C43.2946 13.5312 43.0022 13.2045 42.7963 12.7855C42.5927 12.3641 42.4909 11.8741 42.4909 11.3153C42.4909 10.7566 42.5927 10.2642 42.7963 9.83807C43.0022 9.40956 43.2887 9.07576 43.6556 8.83665C44.0249 8.59517 44.4558 8.47443 44.9482 8.47443C45.2323 8.47443 45.5129 8.52178 45.7899 8.61648C46.0669 8.71117 46.319 8.86506 46.5463 9.07812C46.7735 9.28883 46.9546 9.56818 47.0896 9.91619C47.2245 10.2642 47.292 10.6927 47.292 11.2017V11.5568H43.0874V10.8324H46.4397C46.4397 10.5246 46.3782 10.25 46.2551 10.0085C46.1343 9.76705 45.9615 9.57647 45.7366 9.43679C45.5141 9.29711 45.2513 9.22727 44.9482 9.22727C44.6144 9.22727 44.3256 9.31013 44.0818 9.47585C43.8403 9.6392 43.6544 9.85227 43.5242 10.1151C43.394 10.3778 43.3289 10.6596 43.3289 10.9602V11.4432C43.3289 11.8551 43.3999 12.2043 43.542 12.4908C43.6864 12.7749 43.8865 12.9915 44.1421 13.1406C44.3978 13.2874 44.6949 13.3608 45.0335 13.3608C45.2536 13.3608 45.4525 13.33 45.6301 13.2685C45.81 13.2045 45.9651 13.1098 46.0953 12.9844C46.2255 12.8565 46.3261 12.6979 46.3971 12.5085L47.2068 12.7358C47.1215 13.0104 46.9783 13.2519 46.7771 13.4602C46.5758 13.6662 46.3273 13.8272 46.0313 13.9432C45.7354 14.0568 45.4028 14.1136 45.0335 14.1136ZM51.6919 10.4915V11.2727H48.51V10.4915H51.6919ZM53.2801 14V6.72727H54.1182V9.41193H54.1892C54.2507 9.31723 54.336 9.1965 54.4449 9.04972C54.5561 8.90057 54.7148 8.76799 54.9207 8.65199C55.1291 8.53362 55.4108 8.47443 55.7659 8.47443C56.2252 8.47443 56.63 8.58925 56.9804 8.81889C57.3308 9.04853 57.6042 9.37405 57.8007 9.79545C57.9972 10.2169 58.0954 10.714 58.0954 11.2869C58.0954 11.8646 57.9972 12.3653 57.8007 12.7891C57.6042 13.2105 57.3319 13.5372 56.9839 13.7692C56.6359 13.9988 56.2346 14.1136 55.7801 14.1136C55.4297 14.1136 55.1492 14.0556 54.9385 13.9396C54.7278 13.8213 54.5656 13.6875 54.452 13.5384C54.3383 13.3868 54.2507 13.2614 54.1892 13.1619H54.0898V14H53.2801ZM54.104 11.2727C54.104 11.6847 54.1643 12.0481 54.2851 12.3629C54.4058 12.6754 54.5822 12.9205 54.8142 13.098C55.0462 13.2732 55.3303 13.3608 55.6665 13.3608C56.0168 13.3608 56.3092 13.2685 56.5436 13.0838C56.7803 12.8968 56.9579 12.6458 57.0763 12.331C57.197 12.0137 57.2574 11.661 57.2574 11.2727C57.2574 10.8892 57.1982 10.5436 57.0798 10.2358C56.9638 9.92566 56.7874 9.68063 56.5507 9.50071C56.3163 9.31842 56.0216 9.22727 55.6665 9.22727C55.3256 9.22727 55.0391 9.31368 54.8071 9.48651C54.5751 9.65696 54.3999 9.89607 54.2815 10.2038C54.1631 10.5092 54.104 10.8655 54.104 11.2727ZM60.9825 14.1278C60.6369 14.1278 60.3232 14.0627 60.0415 13.9325C59.7597 13.8 59.536 13.6094 59.3703 13.3608C59.2046 13.1098 59.1217 12.8068 59.1217 12.4517C59.1217 12.1392 59.1833 11.8859 59.3064 11.6918C59.4295 11.4953 59.594 11.3414 59.8 11.2301C60.0059 11.1188 60.2332 11.036 60.4818 10.9815C60.7327 10.9247 60.9849 10.8797 61.2382 10.8466C61.5696 10.804 61.8383 10.772 62.0443 10.7507C62.2526 10.727 62.4041 10.688 62.4988 10.6335C62.5959 10.5791 62.6444 10.4844 62.6444 10.3494V10.321C62.6444 9.97064 62.5486 9.69839 62.3568 9.50426C62.1674 9.31013 61.8798 9.21307 61.4939 9.21307C61.0938 9.21307 60.7801 9.30066 60.5528 9.47585C60.3256 9.65104 60.1657 9.83807 60.0734 10.0369L59.278 9.75284C59.42 9.4214 59.6094 9.16335 59.8461 8.97869C60.0853 8.79167 60.3457 8.66146 60.6274 8.58807C60.9115 8.51231 61.1908 8.47443 61.4655 8.47443C61.6407 8.47443 61.8419 8.49574 62.0692 8.53835C62.2988 8.5786 62.5202 8.66264 62.7332 8.79048C62.9487 8.91832 63.1274 9.11127 63.2694 9.36932C63.4115 9.62737 63.4825 9.97301 63.4825 10.4062V14H62.6444V13.2614H62.6018C62.545 13.3797 62.4503 13.5064 62.3177 13.6413C62.1852 13.7763 62.0088 13.8911 61.7886 13.9858C61.5684 14.0805 61.2997 14.1278 60.9825 14.1278ZM61.1104 13.375C61.4418 13.375 61.7211 13.3099 61.9484 13.1797C62.1781 13.0495 62.3509 12.8814 62.4669 12.6754C62.5853 12.4695 62.6444 12.2528 62.6444 12.0256V11.2585C62.6089 11.3011 62.5308 11.3402 62.4101 11.3757C62.2917 11.4089 62.1544 11.4384 61.9981 11.4645C61.8443 11.4882 61.6939 11.5095 61.5471 11.5284C61.4027 11.545 61.2855 11.5592 61.1956 11.571C60.9778 11.5994 60.7742 11.6456 60.5848 11.7095C60.3978 11.7711 60.2462 11.8646 60.1302 11.9901C60.0166 12.1132 59.9598 12.2812 59.9598 12.4943C59.9598 12.7855 60.0675 13.0057 60.2829 13.1548C60.5007 13.3016 60.7765 13.375 61.1104 13.375ZM68.8758 9.76705L68.123 9.98011C68.0756 9.85464 68.0058 9.73272 67.9134 9.61435C67.8235 9.49361 67.7004 9.39418 67.5441 9.31605C67.3879 9.23793 67.1878 9.19886 66.944 9.19886C66.6102 9.19886 66.332 9.2758 66.1095 9.42969C65.8893 9.5812 65.7792 9.77415 65.7792 10.0085C65.7792 10.2169 65.855 10.3814 66.0065 10.5021C66.158 10.6229 66.3947 10.7235 66.7167 10.804L67.5264 11.0028C68.0141 11.1212 68.3775 11.3023 68.6166 11.5462C68.8557 11.7876 68.9752 12.099 68.9752 12.4801C68.9752 12.7926 68.8853 13.072 68.7053 13.3182C68.5278 13.5644 68.2792 13.7585 67.9596 13.9006C67.64 14.0426 67.2683 14.1136 66.8445 14.1136C66.2882 14.1136 65.8277 13.9929 65.4632 13.7514C65.0986 13.5099 64.8677 13.1572 64.7707 12.6932L65.5661 12.4943C65.6419 12.7879 65.7851 13.008 65.9958 13.1548C66.2089 13.3016 66.4871 13.375 66.8303 13.375C67.221 13.375 67.5311 13.2921 67.7607 13.1264C67.9927 12.9583 68.1088 12.7571 68.1088 12.5227C68.1088 12.3333 68.0425 12.1747 67.9099 12.0469C67.7773 11.9167 67.5737 11.8196 67.2991 11.7557L66.39 11.5426C65.8905 11.4242 65.5235 11.2408 65.2892 10.9922C65.0571 10.7412 64.9411 10.4276 64.9411 10.0511C64.9411 9.74337 65.0276 9.47112 65.2004 9.23438C65.3756 8.99763 65.6135 8.81179 65.9142 8.67685C66.2172 8.5419 66.5605 8.47443 66.944 8.47443C67.4838 8.47443 67.9075 8.5928 68.2153 8.82955C68.5254 9.06629 68.7456 9.37879 68.8758 9.76705ZM72.5237 14.1136C71.9981 14.1136 71.5448 13.9976 71.1636 13.7656C70.7848 13.5312 70.4925 13.2045 70.2865 12.7855C70.0829 12.3641 69.9811 11.8741 69.9811 11.3153C69.9811 10.7566 70.0829 10.2642 70.2865 9.83807C70.4925 9.40956 70.7789 9.07576 71.1459 8.83665C71.5152 8.59517 71.9461 8.47443 72.4385 8.47443C72.7226 8.47443 73.0031 8.52178 73.2801 8.61648C73.5571 8.71117 73.8092 8.86506 74.0365 9.07812C74.2638 9.28883 74.4449 9.56818 74.5798 9.91619C74.7148 10.2642 74.7822 10.6927 74.7822 11.2017V11.5568H70.5777V10.8324H73.93C73.93 10.5246 73.8684 10.25 73.7453 10.0085C73.6246 9.76705 73.4517 9.57647 73.2268 9.43679C73.0043 9.29711 72.7415 9.22727 72.4385 9.22727C72.1047 9.22727 71.8158 9.31013 71.572 9.47585C71.3305 9.6392 71.1447 9.85227 71.0145 10.1151C70.8843 10.3778 70.8192 10.6596 70.8192 10.9602V11.4432C70.8192 11.8551 70.8902 12.2043 71.0322 12.4908C71.1766 12.7749 71.3767 12.9915 71.6324 13.1406C71.8881 13.2874 72.1852 13.3608 72.5237 13.3608C72.7439 13.3608 72.9427 13.33 73.1203 13.2685C73.3002 13.2045 73.4553 13.1098 73.5855 12.9844C73.7157 12.8565 73.8163 12.6979 73.8873 12.5085L74.697 12.7358C74.6118 13.0104 74.4685 13.2519 74.2673 13.4602C74.0661 13.6662 73.8175 13.8272 73.5216 13.9432C73.2256 14.0568 72.893 14.1136 72.5237 14.1136ZM78.1167 14.1136C77.6622 14.1136 77.2609 13.9988 76.9129 13.7692C76.5649 13.5372 76.2926 13.2105 76.0961 12.7891C75.8997 12.3653 75.8014 11.8646 75.8014 11.2869C75.8014 10.714 75.8997 10.2169 76.0961 9.79545C76.2926 9.37405 76.5661 9.04853 76.9165 8.81889C77.2668 8.58925 77.6717 8.47443 78.1309 8.47443C78.4861 8.47443 78.7666 8.53362 78.9726 8.65199C79.1809 8.76799 79.3395 8.90057 79.4484 9.04972C79.5597 9.1965 79.6461 9.31723 79.7077 9.41193H79.7787V6.72727H80.6167V14H79.8071V13.1619H79.7077C79.6461 13.2614 79.5585 13.3868 79.4449 13.5384C79.3312 13.6875 79.1691 13.8213 78.9584 13.9396C78.7477 14.0556 78.4671 14.1136 78.1167 14.1136ZM78.2304 13.3608C78.5666 13.3608 78.8506 13.2732 79.0827 13.098C79.3147 12.9205 79.491 12.6754 79.6118 12.3629C79.7325 12.0481 79.7929 11.6847 79.7929 11.2727C79.7929 10.8655 79.7337 10.5092 79.6153 10.2038C79.497 9.89607 79.3218 9.65696 79.0898 9.48651C78.8577 9.31368 78.5713 9.22727 78.2304 9.22727C77.8753 9.22727 77.5793 9.31842 77.3426 9.50071C77.1082 9.68063 76.9318 9.92566 76.8135 10.2358C76.6975 10.5436 76.6395 10.8892 76.6395 11.2727C76.6395 11.661 76.6987 12.0137 76.817 12.331C76.9378 12.6458 77.1153 12.8968 77.3497 13.0838C77.5864 13.2685 77.88 13.3608 78.2304 13.3608Z" fill="#1D2E2E" fill-opacity="0.8"/>
</svg>
