<svg width="12" height="13" viewBox="0 0 12 13" fill="none" xmlns="http://www.w3.org/2000/svg">
<rect x="11.6609" y="12.334" width="11.6609" height="11.6667" rx="2" transform="rotate(180 11.6609 12.334)" fill="#D12727"/>
<path d="M8.2234 3.4375H5.4059C5.16673 3.4375 4.9684 3.63583 4.9684 3.875C4.9684 4.11417 5.16673 4.3125 5.4059 4.3125H7.16756L2.66423 8.81583C2.49506 8.985 2.49506 9.265 2.66423 9.43417C2.75173 9.52167 2.86256 9.5625 2.9734 9.5625C3.08423 9.5625 3.19506 9.52167 3.28256 9.43417L7.7859 4.93083V6.6925C7.7859 6.93167 7.98423 7.13 8.2234 7.13C8.46256 7.13 8.6609 6.93167 8.6609 6.6925V3.875C8.6609 3.63583 8.46256 3.4375 8.2234 3.4375Z" fill="#FCEEEE"/>
</svg>
