<svg width="25" height="24" viewBox="0 0 25 24" fill="none" xmlns="http://www.w3.org/2000/svg">
<path d="M17.7527 2.14802C16.792 2.04636 15.8263 1.99695 14.8602 2.00015C11.6571 2.00015 9.66683 4.03969 9.66683 7.32377V9.5531H6.97619C6.71333 9.55293 6.50012 9.76591 6.5 10.0288V13.6965C6.49983 13.9593 6.71281 14.1725 6.97566 14.1727H9.66683V21.5238C9.66666 21.7867 9.87964 21.9998 10.1425 22H13.9311C14.194 22.0002 14.4071 21.7872 14.4073 21.5243V14.1727H17.0896C17.3289 14.1726 17.5311 13.9952 17.5621 13.7579L18.0355 10.0907C18.0695 9.83003 17.8858 9.59112 17.6251 9.55712C17.6045 9.55444 17.5838 9.5531 17.563 9.5531H14.4073V7.68742C14.4073 6.76388 14.5933 6.3779 15.7484 6.3779L17.6904 6.37697C17.9533 6.37709 18.1664 6.16417 18.1666 5.90131V2.62049C18.1666 2.38147 17.9896 2.17941 17.7527 2.14802ZM17.2142 5.4246L15.7484 5.42553C13.693 5.42553 13.4549 6.71644 13.4549 7.68742V10.0293C13.4548 10.2921 13.6677 10.5054 13.9306 10.5055H17.0217L16.6711 13.2203H13.9311C13.6683 13.2202 13.4551 13.4331 13.4549 13.696V21.0476H10.6192V13.6965C10.6194 13.4336 10.4064 13.2205 10.1436 13.2203H7.45237V10.5055H10.143C10.4059 10.5057 10.619 10.2927 10.6192 10.0298V7.32377C10.6192 4.58662 12.2049 2.95252 14.8602 2.95252C15.821 2.95252 16.6887 3.0046 17.2142 3.05018V5.4246Z" fill="#1D2E2E"/>
</svg>
